HIERARCHY
ROOT Hips
{
  OFFSET -4.35178 90.3298 111.633
  CHANNELS 6 Xposition Yposition Zposition Zrotation Xrotation Yrotation
  JOINT LeftUpLeg
  {
    OFFSET 0.103456 1.85784 10.5485
    CHANNELS 6 Xposition Yposition Zposition Zrotation Xrotation Yrotation
    JOINT LeftLeg
    {
      OFFSET 43.5 -4.2e-05 0
      CHANNELS 6 Xposition Yposition Zposition Zrotation Xrotation Yrotation
      JOINT LeftFoot
      {
        OFFSET 42.3722 1.9e-05 0
        CHANNELS 6 Xposition Yposition Zposition Zrotation Xrotation Yrotation
        JOINT LeftToe
        {
          OFFSET 17.3 0 0
          CHANNELS 6 Xposition Yposition Zposition Zrotation Xrotation Yrotation
          End Site
          {
            OFFSET 0 0 0
          }
        }
      }
    }
  }
  JOINT RightUpLeg
  {
    OFFSET 0.103456 1.85782 -10.5485
    CHANNELS 6 Xposition Yposition Zposition Zrotation Xrotation Yrotation
    JOINT RightLeg
    {
      OFFSET 43.5 -2.7e-05 0
      CHANNELS 6 Xposition Yposition Zposition Zrotation Xrotation Yrotation
      JOINT RightFoot
      {
        OFFSET 42.3723 0 0
        CHANNELS 6 Xposition Yposition Zposition Zrotation Xrotation Yrotation
        JOINT RightToe
        {
          OFFSET 17.3 0 1.7e-05
          CHANNELS 6 Xposition Yposition Zposition Zrotation Xrotation Yrotation
          End Site
          {
            OFFSET 0 0 0
          }
        }
      }
    }
  }
  JOINT Spine
  {
    OFFSET 6.90197 -2.60373 0
    CHANNELS 6 Xposition Yposition Zposition Zrotation Xrotation Yrotation
    JOINT Spine1
    {
      OFFSET 12.5881 0 0
      CHANNELS 6 Xposition Yposition Zposition Zrotation Xrotation Yrotation
      JOINT Spine2
      {
        OFFSET 12.3432 -1.8e-05 0
        CHANNELS 6 Xposition Yposition Zposition Zrotation Xrotation Yrotation
        JOINT Neck
        {
          OFFSET 25.8329 2.3e-05 0
          CHANNELS 6 Xposition Yposition Zposition Zrotation Xrotation Yrotation
          JOINT Head
          {
            OFFSET 11.7666 0 0
            CHANNELS 6 Xposition Yposition Zposition Zrotation Xrotation Yrotation
            End Site
            {
              OFFSET 0 0 0
            }
          }
        }
        JOINT LeftShoulder
        {
          OFFSET 19.7459 -1.48035 6.0001
          CHANNELS 6 Xposition Yposition Zposition Zrotation Xrotation Yrotation
          JOINT LeftArm
          {
            OFFSET 11.2841 1.8e-05 -2e-05
            CHANNELS 6 Xposition Yposition Zposition Zrotation Xrotation Yrotation
            JOINT LeftForeArm
            {
              OFFSET 33 -1.3e-05 1.9e-05
              CHANNELS 6 Xposition Yposition Zposition Zrotation Xrotation Yrotation
              JOINT LeftHand
              {
                OFFSET 25.2 3.2e-05 1.1e-05
                CHANNELS 6 Xposition Yposition Zposition Zrotation Xrotation Yrotation
                End Site
                {
                  OFFSET 0 0 0
                }
              }
            }
          }
        }
        JOINT RightShoulder
        {
          OFFSET 19.7461 -1.48036 -6.00008
          CHANNELS 6 Xposition Yposition Zposition Zrotation Xrotation Yrotation
          JOINT RightArm
          {
            OFFSET 11.2841 0 0
            CHANNELS 6 Xposition Yposition Zposition Zrotation Xrotation Yrotation
            JOINT RightForeArm
            {
              OFFSET 33.0001 1.6e-05 0
              CHANNELS 6 Xposition Yposition Zposition Zrotation Xrotation Yrotation
              JOINT RightHand
              {
                OFFSET 25.1998 0.000123 0.000432
                CHANNELS 6 Xposition Yposition Zposition Zrotation Xrotation Yrotation
                End Site
                {
                  OFFSET 0 0 0
                }
              }
            }
          }
        }
      }
    }
  }
}
MOTION
Frames:	11
Frame Time:	0.0333333
-50.527 92.3758 128.876 34.5787 82.9268 56.317 0.103456 1.85784 10.5485 8.22978 7.66127 179.999 43.5 -4.2e-05 1e-05 -4.9158 -9.85221 -2.23835 42.3722 1.9e-05 1.42109e-14 75.1207 -3.80938 4.58617 17.3 0 3e-06 21.4546 -1e-06 0.003093 0.103456 1.85782 -10.5485 -3.4612 -13.0762 172.132 43.5 -2.7e-05 4e-06 -24.3877 9.61312 2.6051 42.3723 0 1e-05 78.7941 6.92955 -4.67903 17.3 -6e-06 1.7e-05 21.4546 -1.9e-05 -0.003116 6.90197 -2.60373 -3e-06 6.74704 0.0976389 0.426423 12.5881 1e-05 8e-06 3.47367 0.297607 0.86028 12.3432 -1.8e-05 -5e-06 3.14717 0.400062 0.848913 25.8329 2.3e-05 7e-06 8.14628 -4.98124 -3.89607 11.7666 -8e-06 -6e-06 -10.63 -9.58069 9.60646 19.7459 -1.48035 6.0001 178.926 0.431643 -80.1499 11.2841 1.8e-05 -2e-05 -16.7253 -14.5152 57.0347 33 -1.3e-05 1.9e-05 -40.184 3.13897 -6.04327 25.2 3.2e-05 1.1e-05 -4.09901 36.1251 -5.49958 19.7461 -1.48036 -6.00008 -173.343 1.80417 71.8099 11.2841 -1.42109e-14 -1e-06 -29.3506 -13.5579 -47.4022 33.0001 1.6e-05 -1e-06 -35.5017 -1.60827 11.0563 25.1998 0.000123 0.000432 -4.42816 -14.8719 6.72024 
-50.3376 92.2938 129.067 36.8186 82.4907 54.0243 0.103456 1.85784 10.5485 8.48757 7.91091 179.908 43.5 -4.2e-05 1e-05 -5.18733 -9.92452 -2.28556 42.3722 1.9e-05 0 75.4718 -3.82501 4.64369 17.3 0 3e-06 21.4546 -1e-06 0.003093 0.103456 1.85782 -10.5485 -3.0922 -13.8198 172.21 43.5 -2.7e-05 4e-06 -24.022 10.0019 2.58954 42.3723 0 1e-05 79.2344 7.07586 -5.16805 17.3 -6e-06 1.7e-05 21.4546 -1.9e-05 -0.003116 6.90197 -2.60373 -3e-06 6.74942 0.129995 0.39153 12.5881 1e-05 8e-06 3.47784 0.35763 0.786401 12.3432 -1.8e-05 -5e-06 3.1508 0.455472 0.77147 25.8329 2.3e-05 7e-06 8.11093 -4.87968 -3.99106 11.7666 -8e-06 -6e-06 -10.4103 -9.50091 9.58474 19.7459 -1.48035 6.0001 178.93 0.333187 -80.3194 11.2841 1.8e-05 -2e-05 -16.9903 -14.6051 56.7784 33 -1.3e-05 1.9e-05 -41.5997 2.51773 -5.79395 25.2 3.2e-05 1.1e-05 -4.77467 36.0481 -5.47828 19.7461 -1.48036 -6.00008 -173.266 1.89366 71.6519 11.2841 0 -1e-06 -29.1715 -13.63 -47.3459 33.0001 1.6e-05 -1e-06 -35.6515 -1.54845 11.0613 25.1998 0.000123 0.000432 -4.48285 -14.9016 6.77001 
-50.1814 92.1916 129.315 39.1721 82.0447 51.6241 0.103456 1.85784 10.5485 8.79233 7.95678 179.824 43.5 -4.2e-05 1e-05 -5.36689 -10.0479 -2.2974 42.3722 1.9e-05 -1.42109e-14 75.8372 -3.97425 4.76483 17.3 0 3e-06 21.4546 -1e-06 0.003093 0.103456 1.85782 -10.5485 -2.50366 -14.3341 172.329 43.5 -2.7e-05 4e-06 -23.2711 10.2037 2.51685 42.3723 0 1e-05 79.6393 7.18298 -5.3219 17.3 -6e-06 1.7e-05 21.4546 -1.9e-05 -0.003116 6.90197 -2.60373 -3e-06 6.71036 0.193996 0.357258 12.5881 1e-05 8e-06 3.39828 0.47973 0.709636 12.3432 -1.8e-05 -5e-06 3.06986 0.571379 0.68716 25.8329 2.3e-05 7e-06 8.09658 -4.82519 -4.06896 11.7666 -8e-06 -6e-06 -9.96246 -9.44441 9.5288 19.7459 -1.48035 6.0001 179.065 0.15861 -80.2245 11.2841 1.8e-05 -2e-05 -17.3174 -14.3775 56.5749 33 -1.3e-05 1.9e-05 -42.629 2.2408 -5.66622 25.2 3.2e-05 1.1e-05 -5.32681 36.0314 -5.41266 19.7461 -1.48036 -6.00008 -173.217 2.14707 71.4167 11.2841 0 -1e-06 -28.9822 -13.8643 -47.3651 33.0001 1.6e-05 -1e-06 -35.8787 -1.40622 11.036 25.1998 0.000123 0.000432 -4.5849 -14.7756 6.68077 
-50.0755 92.0959 129.624 41.0925 81.6811 49.6341 0.103456 1.85784 10.5485 9.12054 7.80887 179.769 43.5 -4.2e-05 1e-05 -5.45939 -10.2045 -2.2911 42.3722 1.9e-05 0 76.1831 -4.23895 4.89231 17.3 0 3e-06 21.4546 -1e-06 0.003093 0.103456 1.85782 -10.5485 -1.70267 -14.2387 172.52 43.5 -2.7e-05 4e-06 -22.2446 10.1664 2.34205 42.3723 0 1e-05 79.9927 7.40822 -5.14393 17.3 -6e-06 1.7e-05 21.4546 -1.9e-05 -0.003116 6.90197 -2.60373 -3e-06 6.63475 0.25688 0.330724 12.5881 1e-05 8e-06 3.24562 0.599597 0.648596 12.3432 -1.8e-05 -5e-06 2.91579 0.684934 0.618529 25.8329 2.3e-05 7e-06 8.0836 -4.85703 -4.11707 11.7666 -8e-06 -6e-06 -9.37069 -9.47123 9.42746 19.7459 -1.48035 6.0001 179.346 -0.0237384 -79.9421 11.2841 1.8e-05 -2e-05 -17.6179 -13.8421 56.5374 33 -1.3e-05 1.9e-05 -43.0973 2.07627 -5.56936 25.2 3.2e-05 1.1e-05 -5.69807 36.1319 -5.46912 19.7461 -1.48036 -6.00008 -173.178 2.49832 71.1785 11.2841 0 -1e-06 -28.8295 -14.1528 -47.4937 33.0001 1.6e-05 -1e-06 -35.922 -1.25867 10.9913 25.1998 0.000123 0.000432 -4.73978 -14.6646 6.62973 
-49.9856 92.0156 129.904 43.1001 81.3428 47.6027 0.103456 1.85784 10.5485 9.38372 7.70697 179.669 43.5 -4.2e-05 1e-05 -5.53822 -10.3811 -2.27153 42.3722 1.9e-05 0 76.4706 -4.39766 5.0658 17.3 0 3e-06 21.4546 -1e-06 0.003093 0.103456 1.85782 -10.5485 -1.00591 -14.0599 172.535 43.5 -2.7e-05 4e-06 -21.241 9.98074 2.28905 42.3723 0 1e-05 80.1329 7.81704 -4.72045 17.3 -6e-06 1.7e-05 21.4546 -1.9e-05 -0.003116 6.90197 -2.60373 -3e-06 6.55591 0.324475 0.297069 12.5881 1e-05 8e-06 3.08659 0.727985 0.57294 12.3432 -1.8e-05 -5e-06 2.75529 0.805991 0.534777 25.8329 2.3e-05 7e-06 8.08997 -4.87458 -4.20253 11.7666 -8e-06 -6e-06 -8.98372 -9.43419 9.3059 19.7459 -1.48035 6.0001 179.76 -0.0563653 -79.5052 11.2841 1.8e-05 -2e-05 -17.584 -13.2218 56.7001 33 -1.3e-05 1.9e-05 -42.9846 2.12964 -5.61556 25.2 3.2e-05 1.1e-05 -5.9235 36.1542 -5.4326 19.7461 -1.48036 -6.00008 -173.154 2.8373 70.9975 11.2841 0 -1e-06 -28.7452 -14.3397 -47.7379 33.0001 1.6e-05 -1e-06 -35.7873 -1.21745 10.9755 25.1998 0.000123 0.000432 -4.70524 -14.6266 6.60039 
-49.9176 91.9646 130.163 44.6985 81.0665 46.014 0.103456 1.85784 10.5485 9.59721 7.67111 179.525 43.5 -4.2e-05 1e-05 -5.6147 -10.5439 -2.23959 42.3722 1.9e-05 0 76.6507 -4.36523 5.2835 17.3 7.10543e-15 3e-06 21.4546 -1e-06 0.003093 0.103456 1.85782 -10.5485 -0.464368 -13.9127 172.437 43.5 -2.7e-05 4e-06 -20.4672 9.78443 2.29632 42.3723 0 1e-05 80.166 8.18753 -4.27106 17.3 -6e-06 1.7e-05 21.4546 -1.9e-05 -0.003116 6.90197 -2.60373 -3e-06 6.48606 0.374992 0.267029 12.5881 1e-05 8e-06 2.94597 0.822988 0.506788 12.3432 -1.8e-05 -5e-06 2.61364 0.8946 0.462599 25.8329 2.3e-05 7e-06 8.09583 -4.86342 -4.31972 11.7666 -8e-06 -6e-06 -8.89241 -9.34542 9.19677 19.7459 -1.48035 6.0001 -179.69 0.0641649 -78.9461 11.2841 1.8e-05 -2e-05 -17.1759 -12.5401 57.1084 33 -1.3e-05 1.9e-05 -42.3274 2.27405 -5.78084 25.2 3.2e-05 1.1e-05 -5.92367 36.2209 -5.51865 19.7461 -1.48036 -6.00008 -173.181 3.15456 70.8471 11.2841 1.42109e-14 -1e-06 -28.654 -14.4334 -47.9651 33.0001 1.6e-05 -1e-06 -35.4503 -1.07459 10.9259 25.1998 0.000123 0.000432 -4.62495 -14.3888 6.39859 
-49.9032 91.9372 130.39 46.0678 80.8281 44.6518 0.103456 1.85784 10.5485 9.72972 7.73383 179.416 43.5 -4.2e-05 1e-05 -5.75365 -10.6947 -2.23801 42.3722 1.9e-05 -1.42109e-14 76.7376 -4.22056 5.51305 17.3 0 3e-06 21.4546 -1e-06 0.003093 0.103456 1.85782 -10.5485 -0.132016 -13.7492 172.404 43.5 -2.7e-05 4e-06 -20.0086 9.66576 2.26878 42.3723 0 1e-05 80.2017 8.44514 -4.03873 17.3 -6e-06 1.7e-05 21.4546 -1.9e-05 -0.003116 6.90197 -2.60373 -3e-06 6.43531 0.408986 0.249095 12.5881 1e-05 8e-06 2.84388 0.887218 0.466891 12.3432 -1.8e-05 -5e-06 2.51085 0.954688 0.418604 25.8329 2.3e-05 7e-06 8.11217 -4.87077 -4.42962 11.7666 -8e-06 -6e-06 -9.13774 -9.2613 9.0733 19.7459 -1.48035 6.0001 -179.09 0.313306 -78.367 11.2841 1.8e-05 -2e-05 -16.4358 -11.8713 57.7849 33 -1.3e-05 1.9e-05 -40.94 2.35173 -6.00791 25.2 3.2e-05 1.1e-05 -5.52086 36.1104 -5.52009 19.7461 -1.48036 -6.00008 -173.233 3.35932 70.7646 11.2841 0 -1e-06 -28.6936 -14.5608 -48.1635 33.0001 1.6e-05 -1e-06 -35.0544 -0.960697 10.8783 25.1998 0.000123 0.000432 -4.57569 -14.2224 6.27347 
-49.898 91.9047 130.604 46.9594 80.6113 43.7535 0.103456 1.85784 10.5485 9.88564 7.86839 179.389 43.5 -4.2e-05 1e-05 -5.87754 -10.7856 -2.25792 42.3722 1.9e-05 0 76.8491 -4.14503 5.63911 17.3 7.10543e-15 3e-06 21.4546 -1e-06 0.003093 0.103456 1.85782 -10.5485 0.246033 -14.0599 172.436 43.5 -2.7e-05 4e-06 -19.444 9.62617 2.26921 42.3723 0 1e-05 80.2128 8.11068 -3.88857 17.3 -6e-06 1.7e-05 21.4546 -1.9e-05 -0.003116 6.90197 -2.60373 -3e-06 6.40967 0.418271 0.233439 12.5881 1e-05 8e-06 2.7926 0.903114 0.434589 12.3432 -1.8e-05 -5e-06 2.45949 0.96778 0.385284 25.8329 2.3e-05 7e-06 8.1044 -4.84908 -4.53589 11.7666 -8e-06 -6e-06 -9.48744 -9.17574 9.02016 19.7459 -1.48035 6.0001 -178.477 0.642817 -77.8207 11.2841 1.8e-05 -2e-05 -15.533 -11.1607 58.5653 33 -1.3e-05 1.9e-05 -38.8896 2.48259 -6.32002 25.2 3.2e-05 1.1e-05 -4.86936 35.9112 -5.44643 19.7461 -1.48036 -6.00008 -173.285 3.46115 70.7186 11.2841 -1.42109e-14 -1e-06 -28.7975 -14.6703 -48.3429 33.0001 1.6e-05 -1e-06 -34.6999 -0.939348 10.876 25.1998 0.000123 0.000432 -4.49734 -14.1573 6.22554 
-49.9097 91.879 130.873 47.5196 80.3626 43.2006 0.103456 1.85784 10.5485 10.1727 8.00209 179.315 43.5 -4.2e-05 1e-05 -5.92929 -10.919 -2.25363 42.3722 1.9e-05 1.42109e-14 76.9336 -3.99422 5.81235 17.3 0 3e-06 21.4546 -1e-06 0.003093 0.103456 1.85782 -10.5485 0.475202 -14.0262 172.451 43.5 -2.7e-05 4e-06 -19.4415 9.62632 2.24181 42.3723 0 1e-05 80.3222 7.95861 -3.89911 17.3 -6e-06 1.7e-05 21.4546 -1.9e-05 -0.003116 6.90197 -2.60373 -3e-06 6.39979 0.426534 0.209151 12.5881 1e-05 8e-06 2.773 0.91628 0.385133 12.3432 -1.8e-05 -5e-06 2.4399 0.977567 0.335056 25.8329 2.3e-05 7e-06 8.07773 -4.79036 -4.63111 11.7666 -8e-06 -6e-06 -9.65817 -9.09857 9.03304 19.7459 -1.48035 6.0001 -177.877 0.959966 -77.2433 11.2841 1.8e-05 -2e-05 -14.7457 -10.3217 59.2884 33 -1.3e-05 1.9e-05 -36.2433 2.87067 -6.76739 25.2 3.2e-05 1.1e-05 -3.9451 35.6977 -5.26951 19.7461 -1.48036 -6.00008 -173.373 3.5373 70.6333 11.2841 -1.42109e-14 -1e-06 -28.8986 -14.8278 -48.4655 33.0001 1.6e-05 -1e-06 -34.3779 -0.76792 10.8133 25.1998 0.000123 0.000432 -4.3753 -13.9023 6.00086 
-49.9439 91.8601 131.114 47.933 80.1599 42.8274 0.103456 1.85784 10.5485 10.4107 8.16006 179.201 43.5 -4.2e-05 1e-05 -5.98438 -11.0522 -2.22884 42.3722 1.9e-05 0 77.0447 -3.73995 6.00326 17.3 0 3e-06 21.4546 -1e-06 0.003093 0.103456 1.85782 -10.5485 0.48396 -13.8733 172.367 43.5 -2.7e-05 4e-06 -19.8294 9.639 2.25289 42.3723 0 1e-05 80.4917 7.93132 -3.90996 17.3 -6e-06 1.7e-05 21.4546 -1.9e-05 -0.003116 6.90197 -2.60373 -3e-06 6.40351 0.422472 0.179018 12.5881 1e-05 8e-06 2.78088 0.908833 0.325192 12.3432 -1.8e-05 -5e-06 2.44814 0.966562 0.275702 25.8329 2.3e-05 7e-06 8.04148 -4.76936 -4.68927 11.7666 -8e-06 -6e-06 -9.71644 -9.07224 9.05165 19.7459 -1.48035 6.0001 -177.294 1.30844 -76.665 11.2841 1.8e-05 -2e-05 -14.1232 -9.37515 59.9068 33 -1.3e-05 1.9e-05 -33.3408 3.3909 -7.33055 25.2 3.2e-05 1.1e-05 -2.6953 35.44 -4.967 19.7461 -1.48036 -6.00008 -173.486 3.54155 70.6122 11.2841 0 -1e-06 -29.1537 -15.0552 -48.6103 33.0001 1.6e-05 -1e-06 -34.1264 -0.772198 10.7949 25.1998 0.000123 0.000432 -4.36807 -13.8648 5.97042 
-50.0039 91.8225 131.349 47.9684 80.0223 42.8243 0.103456 1.85784 10.5485 10.5926 8.39119 179.141 43.5 -4.2e-05 1e-05 -6.13378 -11.1533 -2.24002 42.3722 1.9e-05 0 77.1417 -3.4085 6.13238 17.3 0 3e-06 21.4546 -1e-06 0.003093 0.103456 1.85782 -10.5485 0.62089 -13.6486 172.35 43.5 -2.7e-05 4e-06 -20.061 9.65475 2.23367 42.3723 0 1e-05 80.663 8.04576 -3.94331 17.3 -6e-06 1.7e-05 21.4546 -1.9e-05 -0.003116 6.90197 -2.60373 -3e-06 6.41484 0.417047 0.148274 12.5881 1e-05 8e-06 2.80416 0.890073 0.264703 12.3432 -1.8e-05 -5e-06 2.47191 0.944445 0.216535 25.8329 2.3e-05 7e-06 7.98693 -4.77855 -4.71663 11.7666 -8e-06 -6e-06 -9.59988 -9.07933 9.06625 19.7459 -1.48035 6.0001 -176.701 1.60736 -76.0386 11.2841 1.8e-05 -2e-05 -13.8173 -8.26005 60.2831 33 -1.3e-05 1.9e-05 -30.5157 4.2976 -8.04006 25.2 3.2e-05 1.1e-05 -1.43594 35.4119 -4.68287 19.7461 -1.48036 -6.00008 -173.627 3.5592 70.6108 11.2841 -1.42109e-14 -1e-06 -29.3678 -15.2029 -48.7869 33.0001 1.6e-05 -1e-06 -33.8943 -0.79731 10.7931 25.1998 0.000123 0.000432 -4.5329 -13.7564 5.90093 
